<svg width="628" height="215" viewBox="0 0 628 215" fill="none" xmlns="http://www.w3.org/2000/svg">
<path d="M79.0006 133.046C78.1326 129.194 81.6559 125.795 85.4622 126.812L100.305 130.78C101.189 131.017 102.121 131.017 103.005 130.78L117.848 126.812C121.654 125.795 125.177 129.194 124.309 133.046L106.766 210.904C105.536 216.365 97.7742 216.365 96.5436 210.904L79.0006 133.046Z" fill="#1F2C4F"/>
<path d="M102.931 64.0356C102.53 66.1771 99.4703 66.1771 99.0688 64.0356L89.7036 14.0868C89.5979 13.5231 89.7425 12.9412 90.0996 12.4931L99.4647 0.740423C100.251 -0.246808 101.749 -0.246807 102.535 0.740424L111.9 12.4931C112.257 12.9412 112.402 13.5231 112.296 14.0868L102.931 64.0356Z" fill="#FFC700"/>
<path d="M69.8105 80.9715C71.4596 82.3909 69.9299 85.0473 67.8793 84.3251L20.0513 67.4821C19.5115 67.2921 19.0812 66.8756 18.8727 66.3415L13.4034 52.3337C12.9439 51.1571 13.6925 49.8571 14.9386 49.6677L29.7731 47.4126C30.3387 47.3266 30.9136 47.492 31.3477 47.8657L69.8105 80.9715Z" fill="#FFC700"/>
<path d="M132.189 121.551C130.54 120.131 132.07 117.475 134.121 118.197L181.949 135.04C182.488 135.23 182.919 135.646 183.127 136.181L188.597 150.188C189.056 151.365 188.307 152.665 187.061 152.854L172.227 155.109C171.661 155.195 171.086 155.03 170.652 154.656L132.189 121.551Z" fill="#FFC700"/>
<path d="M67.8793 118.197C69.93 117.475 71.4596 120.131 69.8106 121.551L31.3477 154.656C30.9136 155.03 30.3387 155.195 29.7731 155.109L14.9387 152.854C13.6925 152.665 12.944 151.365 13.4034 150.188L18.8727 136.181C19.0812 135.646 19.5116 135.23 20.0513 135.04L67.8793 118.197Z" fill="#FFC700"/>
<path d="M134.121 84.3251C132.07 85.0473 130.54 82.3909 132.189 80.9715L170.652 47.8657C171.086 47.492 171.661 47.3266 172.227 47.4126L187.061 49.6677C188.307 49.8571 189.056 51.1571 188.597 52.3337L183.127 66.3415C182.919 66.8756 182.488 67.2921 181.949 67.4821L134.121 84.3251Z" fill="#FFC700"/>
<path d="M84.1077 68.0547C84.828 70.1107 82.1785 71.6443 80.7627 69.991L47.7423 31.4287C47.3696 30.9935 47.2046 30.4171 47.2904 29.85L49.5397 14.9773C49.7286 13.7279 51.0252 12.9774 52.1988 13.438L66.1705 18.9214C66.7032 19.1305 67.1186 19.562 67.3082 20.1031L84.1077 68.0547Z" fill="#FFC700"/>
<path d="M63.8705 99.3248C66.0066 99.7274 66.0065 102.795 63.8705 103.197L14.0505 112.587C13.4882 112.693 12.9078 112.548 12.4609 112.19L0.738514 102.8C-0.246172 102.012 -0.246171 100.511 0.738515 99.7218L12.4609 90.3324C12.9078 89.9744 13.4882 89.8295 14.0505 89.9354L63.8705 99.3248Z" fill="#FFC700"/>
<path d="M138.129 103.197C135.993 102.795 135.993 99.7274 138.129 99.3248L187.95 89.9354C188.512 89.8295 189.092 89.9744 189.539 90.3324L201.261 99.7218C202.246 100.51 202.246 102.012 201.261 102.8L189.539 112.19C189.092 112.548 188.512 112.693 187.95 112.587L138.129 103.197Z" fill="#FFC700"/>
<path d="M121.237 69.991C119.821 71.6443 117.172 70.1107 117.892 68.0547L134.692 20.1031C134.881 19.562 135.297 19.1305 135.83 18.9214L149.801 13.438C150.975 12.9774 152.271 13.7279 152.46 14.9772L154.71 29.85C154.795 30.4171 154.63 30.9935 154.258 31.4287L121.237 69.991Z" fill="#FFC700"/>
<path d="M121.306 101.261C121.306 112.142 112.508 120.962 101.655 120.962C90.8023 120.962 82.0044 112.142 82.0044 101.261C82.0044 90.3802 90.8023 81.5596 101.655 81.5596C112.508 81.5596 121.306 90.3802 121.306 101.261Z" fill="#C61718"/>
<path d="M244.8 83.17H300.05C314.33 83.17 325.607 86.7967 333.88 94.05C342.153 101.19 346.29 111.56 346.29 125.16C346.29 134 344.42 141.537 340.68 147.77C337.053 154.003 331.84 158.763 325.04 162.05L344.93 202H308.89L291.55 167.15H279.99V202H244.8V83.17ZM293.08 139.27C298.52 139.27 302.713 138.25 305.66 136.21C308.72 134.057 310.25 130.373 310.25 125.16C310.25 119.947 308.72 116.32 305.66 114.28C302.713 112.127 298.52 111.05 293.08 111.05H279.99V139.27H293.08Z" fill="#1F2C4F"/>
<path d="M385.355 156.78L342.005 83.17H379.575L403.035 124.14L428.025 83.17H465.425L420.545 156.78V202H385.355V156.78Z" fill="#1F2C4F"/>
<path d="M466.185 83.17H502.565L519.055 145.39L534.865 83.17H560.365L574.815 145.56L591.135 83.17H627.685L596.065 202H563.085L546.935 138.93L530.785 202H497.805L466.185 83.17Z" fill="#1F2C4F"/>
<path d="M245 27.05H255.35V53.3H269.45V62H245V27.05Z" fill="#1F2C4F"/>
<path d="M283.732 27.05H293.682L307.632 62H297.032L294.432 55.35H282.982L280.332 62H269.732L283.732 27.05ZM292.032 47.5L288.682 37.7L285.332 47.5H292.032Z" fill="#1F2C4F"/>
<path d="M312.025 35.75H302.625V27.05H331.775V35.75H322.375V62H312.025V35.75Z" fill="#1F2C4F"/>
<path d="M334.014 27.05H359.364V35.75H344.364V40.55H355.164V48.5H344.364V53.3H359.364V62H334.014V27.05Z" fill="#1F2C4F"/>
<path d="M373.096 62.75C370.862 62.75 368.612 62.5167 366.346 62.05C364.079 61.6167 362.246 61.0333 360.846 60.3V51.15C362.679 52.15 364.596 52.9 366.596 53.4C368.629 53.9 370.529 54.15 372.296 54.15C374.862 54.15 376.146 53.4667 376.146 52.1C376.146 51.5333 375.946 51.05 375.546 50.65C375.179 50.2167 374.612 49.8167 373.846 49.45C373.079 49.05 371.862 48.4833 370.196 47.75C366.962 46.35 364.612 44.8167 363.146 43.15C361.712 41.4833 360.996 39.4167 360.996 36.95C360.996 34.8833 361.562 33.05 362.696 31.45C363.862 29.8167 365.479 28.55 367.546 27.65C369.612 26.75 371.996 26.3 374.696 26.3C376.896 26.3 378.846 26.4833 380.546 26.85C382.246 27.1833 383.896 27.7333 385.496 28.5V37.35C382.596 35.75 379.629 34.95 376.596 34.95C375.262 34.95 374.196 35.15 373.396 35.55C372.596 35.9167 372.196 36.4667 372.196 37.2C372.196 37.9333 372.546 38.5333 373.246 39C373.979 39.4333 375.346 40.05 377.346 40.85L378.446 41.3C380.812 42.2667 382.629 43.2333 383.896 44.2C385.196 45.1333 386.129 46.2333 386.696 47.5C387.262 48.7333 387.546 50.3 387.546 52.2C387.546 55.5 386.346 58.0833 383.946 59.95C381.546 61.8167 377.929 62.75 373.096 62.75Z" fill="#1F2C4F"/>
<path d="M396.937 35.75H387.537V27.05H416.687V35.75H407.287V62H396.937V35.75Z" fill="#1F2C4F"/>
</svg>
